<?xml version="1.0" standalone="no"?><svg xmlns="http://www.w3.org/2000/svg" viewBox="0 0 1440 320"><path fill="#ff5500" fill-opacity="1" d="M0,288L26.7,256C53.3,224,107,160,160,122.7C213.3,85,267,75,320,106.7C373.3,139,427,213,480,234.7C533.3,256,587,224,640,197.3C693.3,171,747,149,800,165.3C853.3,181,907,235,960,261.3C1013.3,288,1067,288,1120,240C1173.3,192,1227,96,1280,64C1333.3,32,1387,64,1413,80L1440,96L1440,320L1413.3,320C1386.7,320,1333,320,1280,320C1226.7,320,1173,320,1120,320C1066.7,320,1013,320,960,320C906.7,320,853,320,800,320C746.7,320,693,320,640,320C586.7,320,533,320,480,320C426.7,320,373,320,320,320C266.7,320,213,320,160,320C106.7,320,53,320,27,320L0,320Z"></path></svg>