<?xml version="1.0" standalone="no"?><svg xmlns="http://www.w3.org/2000/svg" viewBox="0 0 1440 320"><path fill="#ff5500" fill-opacity="1" d="M0,32L26.7,74.7C53.3,117,107,203,160,250.7C213.3,299,267,309,320,261.3C373.3,213,427,107,480,53.3C533.3,0,587,0,640,0C693.3,0,747,0,800,48C853.3,96,907,192,960,234.7C1013.3,277,1067,267,1120,224C1173.3,181,1227,107,1280,96C1333.3,85,1387,139,1413,165.3L1440,192L1440,320L1413.3,320C1386.7,320,1333,320,1280,320C1226.7,320,1173,320,1120,320C1066.7,320,1013,320,960,320C906.7,320,853,320,800,320C746.7,320,693,320,640,320C586.7,320,533,320,480,320C426.7,320,373,320,320,320C266.7,320,213,320,160,320C106.7,320,53,320,27,320L0,320Z"></path></svg>