<?xml version="1.0" standalone="no"?><svg xmlns="http://www.w3.org/2000/svg" viewBox="0 0 1440 320"><path fill="#ff5500" fill-opacity="1" d="M0,256L34.3,218.7C68.6,181,137,107,206,101.3C274.3,96,343,160,411,197.3C480,235,549,245,617,218.7C685.7,192,754,128,823,106.7C891.4,85,960,107,1029,128C1097.1,149,1166,171,1234,149.3C1302.9,128,1371,64,1406,32L1440,0L1440,0L1405.7,0C1371.4,0,1303,0,1234,0C1165.7,0,1097,0,1029,0C960,0,891,0,823,0C754.3,0,686,0,617,0C548.6,0,480,0,411,0C342.9,0,274,0,206,0C137.1,0,69,0,34,0L0,0Z"></path></svg>